<?xml version="1.0" encoding="iso-8859-1"?>
<!-- Generator: Adobe Illustrator 18.0.0, SVG Export Plug-In . SVG Version: 6.00 Build 0)  -->
<!DOCTYPE svg PUBLIC "-//W3C//DTD SVG 1.1//EN" "http://www.w3.org/Graphics/SVG/1.1/DTD/svg11.dtd">
<svg version="1.1" id="Capa_1" xmlns="http://www.w3.org/2000/svg" xmlns:xlink="http://www.w3.org/1999/xlink" x="0px" y="0px"
	 viewBox="0 0 469.325 469.325" style="enable-background:new 0 0 469.325 469.325;" xml:space="preserve">
<g id="XMLID_111_">
	<path id="XMLID_115_" d="M212.938,425.021l-70.851-43.801c-6.998-4.309-15.662-4.761-23.05-1.176l-15.413,7.48v-59.48l28.38-3.624
		c3.273-0.42,6.374-1.793,8.883-3.95l49.686-42.587c7.107-6.085,7.934-16.784,1.839-23.899c-6.077-7.1-16.801-7.949-23.907-1.832
		l-45.836,39.282l-31.278,3.99c-5.938-5.01-13.513-8.142-21.897-8.142H54.936c-18.858,0-34.132,15.281-34.132,34.124v115.866
		c0,17.697,17.767,35.059,36.454,25.98l70.849-34.387l59.645,36.882c11.223,6.92,25.966,3.53,32.947-7.777
		C227.665,446.724,224.175,431.973,212.938,425.021z"/>
	<path id="XMLID_114_" d="M62.198,279.659c21.882,0,39.634-17.735,39.634-39.625c0-21.896-17.752-39.633-39.634-39.633
		c-21.897,0-39.633,17.737-39.633,39.633C22.565,261.923,40.301,279.659,62.198,279.659z"/>
	<path id="XMLID_113_" d="M447.836,241.171c-1.091-11.439-3.491-22.73-7.294-33.602l-29.129-83.442
		c-6.452-18.468-23.876-30.843-43.436-30.843c-12.748,0-24.625,5.533-33.243,14.673c-5.876,4.566-33.352,63.26-36.641,69.977
		l-59.738,23.285c-14.478,5.649-23.735,14.121-18.155,28.49c6.25,15.959,19.185,13.932,32.65,8.68l67.001-26.112
		c4.66-1.816,8.478-5.33,10.676-9.828l25.482-52.154l-6.607,50.667c-0.53,4.044-2.433,7.496-5.065,10.216l6.717,19.232l0.03,214.973
		c0,13.224,10.723,23.938,23.939,23.938c5.454,0,10.441-1.9,14.463-4.987c-3.07-5.657-4.987-12.047-4.987-18.951V302.726h15.96
		v142.657c0,13.224,10.721,23.938,23.938,23.938c13.216,0,23.939-10.715,23.939-23.938l0.186-190.777
		C448.522,250.11,448.257,245.637,447.836,241.171z"/>
	<path id="XMLID_112_" d="M313.15,93.285c25.776,0,46.645-20.876,46.645-46.638C359.795,20.876,338.927,0,313.15,0
		c-25.764,0-46.647,20.876-46.647,46.646C266.503,72.409,287.387,93.285,313.15,93.285z"/>
</g>
<g>
</g>
<g>
</g>
<g>
</g>
<g>
</g>
<g>
</g>
<g>
</g>
<g>
</g>
<g>
</g>
<g>
</g>
<g>
</g>
<g>
</g>
<g>
</g>
<g>
</g>
<g>
</g>
<g>
</g>
</svg>
